UNKNOWN								-0.95	1.25	0.95
version=1										
nRows=101										
nColumns=4										
inDegrees=no										
endheader										
time	time	hip_flexion_r_moment	hip_flexion_l_moment							
0	0.95	-8.13128449	12.95299095							
1	0.9625	-4.4290402	4.98170165							
2	0.975	-0.83376027	-2.23650065							
3	0.9875	2.7203156	-8.04714313							
4	1	6.2929983	-12.07979206							
5	1.0125	9.9125109	-14.27034007							
6	1.025	13.55603521	-14.82114017							
7	1.0375	17.14462554	-14.12693302							
8	1.05	20.37360405	-12.67939734							
9	1.0625	22.71163565	-10.97586561							
10	1.075	24.03259114	-9.47397602							
11	1.0875	24.18376466	-8.25943623							
12	1.1	24.46476138	-7.3504092							
13	1.1125	24.71824838	-6.67567839							
14	1.125	24.70907313	-6.13506106							
15	1.1375	24.41847142	-5.63999261							
16	1.15	23.78514315	-5.12949954							
17	1.1625	22.48980884	-4.56916909							
18	1.175	20.62106115	-3.94378275							
19	1.1875	18.5324582	-3.25055687							
20	1.2	16.31787655	-2.49457561							
21	1.2125	14.07746827	-1.68543902							
22	1.225	11.90384799	-0.83462205							
23	1.2375	9.87158999	0.04607746							
24	1.25	8.03316252	0.94434774							
25	1.2625	6.42086661	1.84486087							
26	1.275	5.05169199	2.72281068							
27	1.2875	3.93444679	3.51534069							
28	1.3	3.07142171	4.22173628							
29	1.3125	2.45861175	4.78949668							
30	1.325	2.07897726	5.16776925							
31	1.3375	1.89312621	5.3199734							
32	1.35	1.82938042	5.23270561							
33	1.3625	1.77702406	4.91738969							
34	1.375	1.58775207	4.40504732							
35	1.3875	1.08919082	3.73884869							
36	1.4	-0.26012336	2.96819219							
37	1.4125	-2.52319685	2.14576388							
38	1.425	-5.4780439	1.32892252							
39	1.4375	-8.92269474	0.58477681							
40	1.45	-12.51448899	-0.00369033							
41	1.4625	-14.54850168	-0.33286106							
42	1.475	-16.37552535	-0.27852526							
43	1.4875	-18.42736011	0.29558982							
44	1.5	-20.70849019	1.51993456							
45	1.5125	-22.01452146	3.49341418							
46	1.525	-22.17173724	6.25354802							
47	1.5375	-21.3747826	9.7499317							
48	1.55	-19.8920194	13.83027798							
49	1.5625	-17.98228728	18.24752813							
50	1.575	-15.85146607	22.69380649							
51	1.5875	-13.6594938	26.84082568							
52	1.6	-11.55579574	29.98911519							
53	1.6125	-9.70566881	31.97619291							
54	1.625	-8.34506349	32.64508327							
55	1.6375	-7.69821518	32.35091109							
56	1.65	-7.52477802	32.26496536							
57	1.6625	-7.68537496	31.73439592							
58	1.675	-8.01477263	30.75929516							
59	1.6875	-8.3501815	29.27736428							
60	1.7	-8.55021397	27.23728941							
61	1.7125	-8.506782	24.44333776							
62	1.725	-8.15281655	21.23745723							
63	1.7375	-7.46598677	17.90177412							
64	1.75	-6.4673829	14.57730719							
65	1.7625	-5.21399699	11.37951491							
66	1.775	-3.78482902	8.4011027							
67	1.7875	-2.26330309	5.72495159							
68	1.8	-0.72090494	3.4358114							
69	1.8125	0.79303945	1.61981928							
70	1.825	2.22196705	0.34789							
71	1.8375	3.52731128	-0.35231423							
72	1.85	4.79913135	-0.5251164							
73	1.8625	6.02090966	-0.30347261							
74	1.875	7.1480856	0.09680908							
75	1.8875	8.11202016	0.31884551							
76	1.9	8.8290595	-0.1779946							
77	1.9125	9.21271498	-1.32076379							
78	1.925	9.18956449	-3.14691388							
79	1.9375	8.71658966	-5.59893915							
80	1.95	7.79550686	-8.57562811							
81	1.9625	6.48167591	-11.01212513							
82	1.975	4.88614362	-14.06087637							
83	1.9875	3.16945138	-18.00315338							
84	2	1.52789736	-22.63228723							
85	2.0125	0.17377678	-27.21352508							
86	2.025	-0.69032557	-30.88438161							
87	2.0375	-0.90188784	-33.29812936							
88	2.05	-0.36849033	-34.26708173							
89	2.0625	0.90843743	-33.7772749							
90	2.075	2.82020972	-31.94886761							
91	2.0875	5.14959755	-28.97690768							
92	2.1	7.58199785	-25.08775184							
93	2.1125	9.72938473	-20.5220463							
94	2.125	11.16832858	-15.52978439							
95	2.1375	11.49301801	-10.35626694							
96	2.15	10.17120008	-5.21149148							
97	2.1625	6.94049005	-0.23552103							
98	2.175	1.97549114	4.34956114							
99	2.1875	-4.31051747	8.68986185							
100	2.2	-11.00271668	12.90241752							
